<svg id="Capa_1" enable-background="new 0 0 512 512" height="512" viewBox="0 0 512 512" width="512" xmlns="http://www.w3.org/2000/svg"><path d="m76.507 211.264h317.691v130.769h-317.691z" transform="matrix(.707 -.707 .707 .707 -126.687 247.448)"/><path d="m497.724 106.744-16.098-16.098 17.911-17.911c16.617-16.617 16.617-43.655 0-60.272-16.615-16.617-43.654-16.618-60.271 0l-17.912 17.911-16.098-16.098-39.383 39.383 92.468 92.467z"/><path d="m0 512 144.476-59.119-85.357-85.357z"/><path d="m344.603 74.856 21.2-21.2-.281-.281c-21.5-21.5-56.483-21.499-77.982 0l-89.372 89.373 21.234 21.234 89.372-89.372c9.791-9.791 25.722-9.792 35.514-.001l.319.319-21.934 21.932 92.468 92.468 21.967-21.967z"/></svg>